<svg xmlns="http://www.w3.org/2000/svg" enable-background="new 0 0 48 48" viewBox="0 0 48 48" id="equestrian">
  <path fill="#bc9c73" d="M11.375 22.254C10.984 19.994 8.889 19 7 19c-3 0-5.332 2-5.332 5 0 1 .276 2.035-.668 3 2 0 3-1 4-2S7.836 20.994 11.375 22.254zM25 21c2.6 0 7-7.7 15-7.7 3 0 5.61 1.249 7.201 3.499L42 22H25V21z"></path>
  <path fill="#f2d6ad" d="M44.641,19.686C43.823,18.049,42.359,17,40,17c-4.718,0-9.271,4-15,4c-2.455,0-7.545,0-10,0
	c-3.257,0-6,2.743-6,6c0,2.999,1.436,4.481,1.436,4.481L7.923,33l-2.699,6H2v5.5l5.445-2.337c0,0,2.262-4.455,2.991-5.965
	c4.192-1.404,5.706-1.512,7.035-3.224C17.499,32.981,17.963,33,23,33c2.548,0,4.697-0.4,6.406-1.003
	c2.612-0.025,2.889-0.296,4.62-0.696C33.428,32.198,31.56,35,31.56,35H28v5l5.244-1.866L40,28h-5.974c0-0.818,1.974-5,4.974-5
	c0,2,1,3,4,4v0.942L46,29l1-1C46.182,24.726,45.46,21.323,44.641,19.686z"></path>
  <polygon fill="#5e5e5e" points="31 35 28 35 28 40 31 38.932"></polygon>
  <polygon fill="#5e5e5e" points="5 39 2 39 2 44.5 5 43.213"></polygon>
  <path fill="#ccc" d="M29.593,10.331c-1.227-1.837-0.24-4.725,1.597-5.952c1.837-1.227,4.321-0.733,5.548,1.104
	s0.733,4.321-1.104,5.548C33.797,12.259,30.82,12.168,29.593,10.331z M34.643,18c0,0-5.022-7.626-5.05-7.669
	c-1.227-1.837-3.218-2.735-5.055-1.507l-8.315,5.556c-1.837,1.227-2.554,3.935-1.327,5.771c0.458,0.686,1.091,1.183,1.801,1.475
	L23.188,24l-0.906,7.437c-0.216,1.083,0.488,2.136,1.571,2.352c1.083,0.216,2.136-0.488,2.352-1.571c0,0,1.755-8.827,1.755-8.827
	c0.183-0.917-0.298-1.866-1.195-2.238l-3.876-1.605l5.835-3.899l2.435,4.32c0.543,0.962,1.763,1.301,2.725,0.757
	S35.186,18.962,34.643,18z"></path>
  <path fill="#efefef" d="M29.593,10.331c-1.227-1.837-0.24-4.724,1.597-5.952C32.713,3.361,34.672,3.543,36,4.678V6h-2v2h-2v2h-2v0.793
	C29.855,10.65,29.709,10.506,29.593,10.331z M16,21.243V20h2v-2h2v-2h2v-2h2v-2h2v-2h2V8.767c-1.059-0.638-2.291-0.726-3.462,0.057
	l-8.315,5.556c-1.837,1.227-2.554,3.935-1.327,5.771C15.196,20.601,15.577,20.961,16,21.243z"></path>
  <path d="M47,19v-1h1v-2h-1v-2h-2v-1h-2v-1h-6v1h-1v-1h1v-1h1V5h-1V4h-1V3h-6v1h-1v1h-1v2h-4v1h-1v1h-2v1h-1v1h-2v1h-1v1h-2v1h-1v2
	h-1v4h-2v-1H9v-1H4v1H3v1H2v1H1v3H0v4h3v-1h2v-1h1v-1h1v-1h1v-1h1v1H8v6h1v1H8v1H7v2H6v2H5v2H1v7h4v-1h2v-1h2v-2h1v-2h1v-2h2v-1h2
	v-1h2v-1h5v1h4v-1h1v-1h4v1h-4v7h4v-1h2v-1h2v-2h1v-1h1v-2h1v-1h1v-2h1v-1h1v-3h1v2h2v1h3v-1h1v-4h-1v-3h-1v-3H47z M4,43H3v-3h1V43z
	 M30,39h-1v-3h1V39z M30,6h1V5h4v1h1v4h-1v1h-4v-1h-1V6z M35,13v1h-2v-1H35z M8,21v1H6v1H5v1H4v1H3v1H2v-2h1v-2h1v-1h1v-1h4v1H8z
	 M21,32h-1v-2h1V32z M22,28h-3v2h-1v1h-1v1h-1v1h-2v1h-2v1h-2v2H9v2H8v2H7v1H6v-4h1v-2h1v-2h1v-1h1v-1h1v-2h-1v-6h1v-1h1v-1h5v1h2v1
	h3V28z M26,28h-1v5h-2v-5h1v-5h-2v-1h-3v-1h-2v-1h-2v-4h1v-1h2v-1h1v-1h2v-1h1v-1h2v-1h1V9h3v1h1v2h1v1h1v2h1v1h1v2h1v1h-1v1h-1v-1
	h-1v-2h-1v-1h-1v-2h-1v-1h-1v-2h-2v2h1v2h1v1h-2v1h-2v1h-2v-1h-3v2h3v1h2v1h2v1h1V28z M26,19v-1h2v1H26z M38,30h-1v2h-1v1h-1v2h-1v1
	h-1v2h-1v-3h1v-2h1v-1h1v-2h-3v1h-5v-3h1v-6h1v-1h2v1h3v1h1v1h-1v2h-1v1h-2v2h7V30z M39,27h-4v-1h1v-1h2v1h1V27z M46,28h-2v-2h-2v-1
	h-1v-1h-1v-2h-4v-1h-1v-1h1v-2h6v1h1v1h1v1h-2v2h2v-1h1v3h1V28z M45,17v1h-1v-1h-1v-1h-7v1h-1v-2h2v-1h6v1h2v1h1v1H45z"></path>
</svg>
