<svg xmlns="http://www.w3.org/2000/svg" viewBox="0 0 360 220" role="img" aria-label="Horse and rider sprite">
  <defs>
    <style>
      .horse-main { fill: #c98949; }
      .horse-dark { fill: #b8793f; }
      .horse-line { fill: #111111; }
      .rider { fill: #8f8f8f; }
      .rider-line { fill: #0f0f0f; }
    </style>
  </defs>

  <!-- tail -->
  <path class="horse-main" d="M286 114 C313 108 336 120 345 139 C332 128 319 132 307 138 C316 145 322 154 325 166 C312 156 300 149 288 146 Z"/>

  <!-- body -->
  <path class="horse-main" d="M72 73
    C108 56 170 52 219 67
    C246 75 267 93 278 116
    C286 133 282 151 264 162
    C246 174 221 178 194 174
    C157 169 126 170 101 161
    C79 153 66 138 62 118
    C58 98 61 82 72 73 Z"/>

  <!-- neck -->
  <path class="horse-main" d="M73 70 C57 69 42 73 31 84 C24 92 23 104 30 113 C37 121 50 122 62 117 C72 112 79 103 84 92 C88 82 85 74 73 70 Z"/>

  <!-- head -->
  <path class="horse-main" d="M28 82 C12 84 2 95 3 108 C4 122 19 133 38 132 C52 131 62 122 65 111 C67 99 61 88 48 83 C42 81 35 81 28 82 Z"/>

  <!-- ear -->
  <path class="horse-main" d="M39 79 L45 67 L52 82 Z"/>

  <!-- eye -->
  <circle class="horse-line" cx="45" cy="102" r="4.4"/>

  <!-- front leg near -->
  <path class="horse-main" d="M88 147 C84 163 82 180 84 199 C85 208 95 209 98 201 C101 194 99 182 98 170 C106 165 109 156 106 148 Z"/>

  <!-- front leg far -->
  <path class="horse-dark" d="M120 150 C118 162 116 173 117 186 C118 193 126 193 129 188 C132 182 131 173 129 163 C137 158 142 151 141 144 Z"/>

  <!-- rear leg near -->
  <path class="horse-main" d="M208 156 C201 164 191 173 181 182 C176 187 178 195 185 196 C196 197 211 189 220 177 C226 169 229 160 225 152 Z"/>

  <!-- rear leg far -->
  <path class="horse-dark" d="M241 149 C239 162 239 176 242 188 C245 197 254 198 258 191 C261 186 259 179 256 170 C264 164 269 155 266 147 Z"/>

  <!-- hoof accents -->
  <path class="horse-dark" d="M84 196 C89 194 95 194 99 197 C95 204 88 205 84 201 Z"/>
  <path class="horse-dark" d="M117 183 C121 181 127 181 130 184 C126 190 120 191 117 188 Z"/>
  <path class="horse-dark" d="M182 190 C189 188 198 188 205 191 C199 198 189 199 183 196 Z"/>
  <path class="horse-dark" d="M242 187 C246 185 253 185 257 188 C253 194 246 194 242 191 Z"/>

  <!-- minimal mane -->
  <path class="horse-dark" d="M64 73 C58 76 54 82 52 90 C49 101 53 110 60 114 C57 103 59 90 68 79 Z"/>

  <!-- rider torso -->
  <path class="rider" d="M136 51
    C149 37 176 32 197 37
    C213 41 227 51 231 62
    C236 75 228 90 209 95
    C191 100 165 98 150 89
    C136 81 129 64 136 51 Z"/>

  <!-- rider head -->
  <path class="rider" d="M101 47 C101 36 111 27 123 27 C136 27 145 36 145 47 C145 57 136 66 123 66 C111 66 101 57 101 47 Z"/>

  <!-- rider helmet/hair drop -->
  <path class="rider" d="M108 57 C111 66 114 71 120 76 C123 69 126 62 126 55 Z"/>

  <!-- rider arm -->
  <path class="rider" d="M130 88 C122 94 110 97 98 98 C90 99 86 106 88 112 C90 118 97 121 105 119 C122 115 138 107 145 95 Z"/>

  <!-- rider leg -->
  <path class="rider" d="M188 88 C197 104 196 122 185 142 C180 151 182 158 188 161 C196 165 206 160 211 150 C226 124 227 98 215 77 Z"/>

  <!-- stirrup/outline accents -->
  <path class="rider-line" d="M90 110 C95 105 101 104 107 106 C103 112 96 115 90 114 Z"/>
  <path class="rider-line" d="M188 154 C195 149 202 148 208 151 C202 158 194 160 188 158 Z"/>
</svg>
