<svg xmlns="http://www.w3.org/2000/svg" viewBox="0 0 420 220" role="img" aria-label="Horse and rider sprite">
  <defs>
    <style>
      .horse-main { fill: #c78546; }
      .horse-mid { fill: #b6733f; }
      .horse-dark { fill: #9b5d31; }
      .accent { fill: #1a1a1a; }
      .rider { fill: #8f8f8f; }
      .rider-dark { fill: #6f6f6f; }
    </style>
  </defs>

  <!-- tail -->
  <path class="horse-main" d="M330 124 C354 118 377 127 392 146 C377 140 364 144 352 150 C365 157 374 168 379 182 C360 170 344 161 326 160 Z"/>

  <!-- body -->
  <path class="horse-main" d="M116 86
    C154 68 207 64 263 74
    C292 80 314 94 326 113
    C338 132 337 149 324 162
    C307 176 276 184 238 185
    C196 186 156 181 129 167
    C108 156 96 138 97 120
    C97 104 102 93 116 86 Z"/>

  <!-- topline/chest accents -->
  <path class="horse-mid" d="M132 92 C173 80 229 79 278 92 C264 87 241 84 213 84 C184 84 156 87 132 92 Z"/>
  <path class="horse-mid" d="M104 121 C114 108 129 98 147 92 C130 104 120 118 117 132 C111 130 107 126 104 121 Z"/>

  <!-- neck -->
  <path class="horse-main" d="M111 86 C96 83 82 86 68 95 C56 103 50 117 53 129 C56 140 66 145 79 143 C95 140 108 129 116 114 C122 103 123 91 111 86 Z"/>

  <!-- head -->
  <path class="horse-main" d="M55 96 C40 99 30 110 29 123 C28 137 39 147 56 149 C71 150 84 143 91 132 C96 123 94 111 85 103 C77 97 66 94 55 96 Z"/>

  <!-- ear + face details -->
  <path class="horse-main" d="M70 96 L76 82 L84 96 Z"/>
  <circle class="accent" cx="63" cy="122" r="4"/>
  <path class="horse-dark" d="M53 133 C60 136 69 136 77 132 C70 140 60 141 53 133 Z"/>

  <!-- mane -->
  <path class="horse-dark" d="M110 88 C100 93 91 102 86 113 C82 123 82 132 87 139 C88 126 93 112 105 99 C113 90 119 86 110 88 Z"/>

  <!-- front legs -->
  <path class="horse-main" d="M152 162 C146 177 144 195 148 210 C150 218 158 219 162 212 C166 205 164 194 164 182 C173 175 179 167 178 157 Z"/>
  <path class="horse-mid" d="M182 162 C177 176 177 190 180 203 C183 212 191 213 196 206 C200 200 200 191 197 181 C207 174 214 166 213 157 Z"/>

  <!-- rear legs -->
  <path class="horse-main" d="M252 166 C244 175 234 184 224 193 C217 199 218 209 227 210 C241 212 257 202 267 188 C275 177 278 166 272 158 Z"/>
  <path class="horse-mid" d="M286 164 C282 176 282 193 286 208 C289 217 298 218 304 211 C309 205 308 196 304 185 C314 177 321 168 320 159 Z"/>

  <!-- hooves -->
  <path class="horse-dark" d="M148 207 C154 204 160 204 165 207 C160 214 152 215 148 212 Z"/>
  <path class="horse-dark" d="M180 201 C186 198 193 198 198 201 C193 208 185 209 180 206 Z"/>
  <path class="horse-dark" d="M224 205 C234 201 246 201 255 205 C248 212 235 214 226 211 Z"/>
  <path class="horse-dark" d="M286 206 C292 202 300 202 306 206 C300 213 291 214 286 211 Z"/>

  <!-- rider torso -->
  <path class="rider" d="M186 62 C200 49 225 45 248 50 C269 54 284 68 286 83 C288 97 276 106 255 108 C232 110 204 104 191 92 C179 83 177 72 186 62 Z"/>

  <!-- rider head -->
  <path class="rider" d="M157 59 C156 47 166 38 179 37 C193 36 204 44 205 56 C206 67 197 77 184 78 C170 79 158 71 157 59 Z"/>

  <!-- rider arm -->
  <path class="rider" d="M188 93 C177 100 162 104 147 106 C138 107 134 114 136 121 C138 128 146 131 155 129 C173 125 189 117 198 105 Z"/>

  <!-- rider leg -->
  <path class="rider" d="M243 99 C252 113 252 130 243 148 C238 158 240 166 247 170 C255 174 267 170 273 160 C286 138 288 112 275 92 Z"/>

  <!-- subtle separation accents -->
  <path class="rider-dark" d="M140 121 C147 115 156 113 164 116 C156 124 148 126 140 124 Z"/>
  <path class="rider-dark" d="M247 164 C255 158 264 156 272 159 C264 167 254 170 247 168 Z"/>
</svg>
